<svg width="800" height="800" viewBox="0 0 800 800" fill="none" xmlns="http://www.w3.org/2000/svg">
<g clip-path="url(#clip0_538_2)">
<rect width="800" height="800" fill="white"/>
<path d="M127.541 388.309C127.289 372.912 133.939 360.927 147.478 352.348C139.842 341.245 128.582 335.005 113.693 333.61C108.396 333.113 101.625 334.365 93.3878 337.398C84.5273 340.683 79.539 342.315 78.4327 342.315C76.0938 342.315 71.6029 340.935 64.9479 338.152C58.3073 335.376 52.6422 333.989 47.9644 333.989C40.089 334.117 32.7618 336.294 25.9952 340.518C19.226 344.746 13.8132 350.523 9.75415 357.833C4.57906 366.922 2 377.774 2 390.388C2 401.743 3.90214 413.095 7.71614 424.457C11.2851 435.309 15.8463 444.835 21.3781 453.028C26.296 460.474 30.6195 465.899 34.3001 469.31C39.5989 474.607 45.0069 477.135 50.5532 476.878C54.1197 476.747 58.7926 475.424 64.5791 472.894C69.9895 470.509 75.4097 469.308 80.8274 469.308C85.8714 469.308 91.0975 470.501 96.5201 472.894C102.547 475.424 107.474 476.683 111.288 476.683C116.951 476.436 122.24 473.973 127.17 469.31C128.886 467.789 130.766 465.71 132.794 463.06C135.136 459.974 137.384 456.819 139.537 453.598C141.33 450.821 143.024 447.98 144.615 445.082C146.321 441.961 147.832 438.737 149.137 435.428C149.746 434.04 150.299 432.624 150.797 431.173C151.287 429.722 151.779 428.244 152.272 426.728C147.718 424.714 143.593 421.863 139.903 418.202C131.79 410.14 127.665 400.168 127.541 388.309ZM261.412 422.048H260.517L223.025 336.369H193.583V474.607H219.242V385.077H220.434L251.766 456.17H269.761L300.993 385.077H302.189V474.607H328.145V336.369H298.904L261.412 422.048ZM104.274 318.284C110.801 310.081 114.064 301.249 114.064 291.785V289.895C114.064 289.259 114.001 288.631 113.88 288C109.323 288.252 104.495 289.706 99.383 292.35C94.2782 295.004 90.0639 298.353 86.7352 302.383C80.0922 310.338 76.7659 318.849 76.7659 327.935V329.728C76.7659 330.301 76.829 330.898 76.9503 331.533C87.1695 332.54 96.2774 328.122 104.274 318.284ZM628.043 336.369H656.883V474.609H628.043V336.369ZM743.989 358.343C761.094 358.343 770.139 371.51 770.139 385.689H797.795V382.751C797.795 356.016 777.405 333.739 743.788 333.739C707.783 333.739 686.304 357.436 686.304 397.846V413.444C686.304 453.843 707.584 477.246 743.686 477.246C778.198 477.246 797.795 454.654 797.795 429.542V426.505H770.141C770.141 440.79 761.293 452.637 744.193 452.637C726.683 452.637 715.542 440.179 715.542 413.539V397.953C715.542 371.406 726.785 358.343 743.989 358.343ZM438.45 423.664C438.45 442.202 427.61 452.426 411.699 452.426C395.686 452.426 384.848 442.299 384.848 423.664V336.369H356.202V427.715C356.202 457.194 377.084 477.244 411.694 477.244C446.206 477.244 467.188 457.194 467.188 427.715V336.369H438.45V423.664ZM562.608 394.095L542.024 389.442C529.893 386.902 523.527 381.537 523.527 373.533C523.527 362.904 532.177 356.218 546.108 356.218C561.82 356.218 569.676 365.231 570.37 374.955H597.223C596.925 350.545 576.54 333.533 546.202 333.533C517.464 333.533 494.786 348.626 494.786 375.766C494.786 399.261 510.702 410.191 529.796 414.354L550.181 419.11C563.906 422.249 570.867 426.81 570.867 436.222C570.867 446.965 562.312 454.258 546.304 454.258C529.098 454.258 520.046 445.14 519.255 434.909H491.603C492.008 454.457 504.935 477.244 544.917 477.244C578.529 477.244 599.319 460.535 599.319 433.383C599.31 408.267 582.501 398.443 562.608 394.095Z" fill="#231F20"/>
</g>
<defs>
<clipPath id="clip0_538_2">
<rect width="800" height="800" fill="white"/>
</clipPath>
</defs>
</svg>
