<?xml version="1.0" encoding="utf-8"?><!-- Uploaded to: SVG Repo, www.svgrepo.com, Generator: SVG Repo Mixer Tools -->
<svg width="800px" height="800px" viewBox="0 -236.21 643.19 643.19" xmlns="http://www.w3.org/2000/svg">
<g fill="#77787A">
<path d="M247.189 119.998c-3.312 1.584-10.656 4.032-20.017 4.032-21.022 0-34.703-14.257-34.703-35.567 0-21.456 14.688-37.15 37.438-37.15 7.488 0 14.112 1.872 17.568 3.744l-2.88 9.647c-3.024-1.584-7.775-3.312-14.688-3.312-15.984 0-24.624 11.951-24.624 26.353 0 16.128 10.368 26.062 24.191 26.062 7.199 0 11.951-1.729 15.552-3.312l2.163 9.503zM262.021 20.208h12.672v43.631h.288c2.016-3.6 5.184-6.912 9.072-9.071a25.976 25.976 0 0 1 12.959-3.456c9.359 0 24.336 5.76 24.336 29.664v41.471h-12.672v-40.03c0-11.231-4.177-20.592-16.129-20.592-8.208 0-14.543 5.76-16.991 12.527-.721 1.872-.864 3.743-.864 6.048v42.047H262.02l.001-102.239zM341.94 74.495c0-8.208-.145-15.265-.576-21.744h11.088l.576 13.824h.433c3.168-9.36 10.943-15.265 19.439-15.265 1.296 0 2.304.145 3.455.288V63.55c-1.297-.287-2.593-.287-4.319-.287-8.928 0-15.265 6.623-16.991 16.127-.288 1.729-.433 3.888-.433 5.903v37.15H341.94V74.495zM450.66 87.023c0 25.774-18 37.008-34.704 37.008-18.72 0-33.406-13.823-33.406-35.855 0-23.184 15.407-36.862 34.561-36.862 20.013-.002 33.549 14.541 33.549 35.709zm-55.15.72c0 15.264 8.641 26.782 21.022 26.782 12.097 0 21.168-11.376 21.168-27.07 0-11.809-5.903-26.641-20.88-26.641-14.832.001-21.31 13.825-21.31 26.929zM466.645 71.615c0-7.345-.287-13.104-.575-18.864h11.088l.576 11.376h.432c3.89-6.624 10.368-12.815 22.032-12.815 9.358 0 16.561 5.76 19.583 13.968h.288c2.16-4.031 5.04-6.911 7.92-9.071 4.176-3.168 8.641-4.896 15.265-4.896 9.359 0 23.04 6.048 23.04 30.239v40.896h-12.385V83.135c0-13.535-5.04-21.455-15.12-21.455-7.344 0-12.814 5.327-15.118 11.375-.576 1.871-1.01 4.031-1.01 6.336v43.055h-12.384V80.687c0-11.088-4.896-19.007-14.543-19.007-7.776 0-13.681 6.335-15.696 12.671-.72 1.729-1.008 4.031-1.008 6.191v41.902h-12.385V71.615zM593.797 89.902c.288 17.138 11.088 24.19 23.902 24.19 9.072 0 14.688-1.584 19.296-3.6l2.305 9.071c-4.464 2.017-12.238 4.464-23.327 4.464-21.455 0-34.271-14.256-34.271-35.278s12.385-37.438 32.688-37.438c22.896 0 28.801 19.872 28.801 32.688 0 2.592-.146 4.464-.434 5.902l-48.96.001zm37.15-9.071c.146-7.92-3.312-20.448-17.566-20.448-12.96 0-18.433 11.664-19.438 20.448h37.004z"/>
</g>
<circle fill="#FFF" cx="85.314" cy="85.713" r="83.805"/>
<path fill-opacity=".1" d="M138.644 100.95c0-29.454-23.877-53.331-53.33-53.331-29.454 0-53.331 23.877-53.331 53.331H47.22c0-21.039 17.055-38.094 38.093-38.094s38.093 17.055 38.093 38.094"/>
<circle fill-opacity=".1" cx="89.123" cy="96.379" r="28.951"/>
<linearGradient id="a" gradientUnits="userSpaceOnUse" x1="-149.309" y1="-72.211" x2="-149.309" y2="-71.45" gradientTransform="matrix(82 0 0 82 12328.615 5975.868)">
<stop offset="0" stop-color="#81b4e0"/>
<stop offset="1" stop-color="#0c5a94"/>
</linearGradient>
<circle fill="url(#a)" cx="85.314" cy="85.712" r="31.236"/>
<linearGradient id="b" gradientUnits="userSpaceOnUse" x1="-114.66" y1="591.553" x2="-114.66" y2="660.884" gradientTransform="translate(202.64 -591.17)">
<stop offset="0" stop-color="#f06b59"/>
<stop offset="1" stop-color="#df2227"/>
</linearGradient>
<path fill="url(#b)" d="M161.5 47.619C140.525 5.419 89.312-11.788 47.111 9.186a85.315 85.315 0 0 0-32.65 28.529l34.284 59.426c-6.313-20.068 4.837-41.456 24.905-47.77a38.128 38.128 0 0 1 10.902-1.752"/>
<linearGradient id="c" gradientUnits="userSpaceOnUse" x1="-181.879" y1="737.534" x2="-146.834" y2="679.634" gradientTransform="translate(202.64 -591.17)">
<stop offset="0" stop-color="#388b41"/>
<stop offset="1" stop-color="#4cb749"/>
</linearGradient>
<path fill="url(#c)" d="M14.461 37.716c-26.24 39.145-15.78 92.148 23.363 118.39a85.33 85.33 0 0 0 40.633 14.175l35.809-60.948c-13.39 16.229-37.397 18.529-53.625 5.141a38.096 38.096 0 0 1-11.896-17.33"/>
<linearGradient id="d" gradientUnits="userSpaceOnUse" x1="-64.479" y1="743.693" x2="-101.81" y2="653.794" gradientTransform="translate(202.64 -591.17)">
<stop offset="0" stop-color="#e4b022"/>
<stop offset=".3" stop-color="#fcd209"/>
</linearGradient>
<path fill="url(#d)" d="M78.457 170.28c46.991 3.552 87.965-31.662 91.519-78.653a85.312 85.312 0 0 0-8.477-44.007H84.552c21.036.097 38.014 17.23 37.917 38.269a38.099 38.099 0 0 1-8.205 23.443"/>
<linearGradient id="e" gradientUnits="userSpaceOnUse" x1="-170.276" y1="686.026" x2="-170.276" y2="625.078" gradientTransform="translate(202.64 -591.17)">
<stop offset="0" stop-opacity=".15"/>
<stop offset=".3" stop-opacity=".06"/>
<stop offset="1" stop-opacity=".03"/>
</linearGradient>
<path fill="url(#e)" d="M14.461 37.716l34.284 59.426a38.093 38.093 0 0 1 1.523-25.904L15.984 35.43"/>
<linearGradient id="f" gradientUnits="userSpaceOnUse" x1="-86.149" y1="705.707" x2="-128.05" y2="748.37" gradientTransform="translate(202.64 -591.17)">
<stop offset="0" stop-opacity=".15"/>
<stop offset=".3" stop-opacity=".06"/>
<stop offset="1" stop-opacity=".03"/>
</linearGradient>
<path fill="url(#f)" d="M78.457 170.28l35.809-60.948a38.105 38.105 0 0 1-22.095 12.951L76.933 170.28"/>
<linearGradient id="g" gradientUnits="userSpaceOnUse" x1="-86.757" y1="717.981" x2="-80.662" y2="657.797" gradientTransform="translate(202.64 -591.17)">
<stop offset="0" stop-opacity=".15"/>
<stop offset=".3" stop-opacity=".06"/>
<stop offset="1" stop-opacity=".03"/>
</linearGradient>
<path fill="url(#g)" d="M161.5 47.619H84.552a38.094 38.094 0 0 1 29.712 14.476l48.759-12.189"/>
</svg>