<?xml version="1.0" encoding="utf-8"?><!-- Uploaded to: SVG Repo, www.svgrepo.com, Generator: SVG Repo Mixer Tools -->
<svg width="800px" height="800px" viewBox="0 0 192.756 192.756" xmlns="http://www.w3.org/2000/svg">
<g fill-rule="evenodd" clip-rule="evenodd">
<path fill="#ffffff" d="M0 0h192.756v192.756H0V0z"/>
<path d="M170.855 84.725h5.643c-.625.485-1 1.079-1 1.892v19.431c0 .812.391 1.391 1 1.875h-5.643c.609-.484.984-1.078.984-1.875V86.616c.001-.813-.359-1.407-.984-1.891zM40.065 93.072c-.922-1.985-1.938-3.939-3.642-5.361-1.813-1.532-4.112-2.454-6.488-2.454-6.315 0-9.145 5.705-9.145 11.317 0 5.425 2.705 10.911 8.801 10.911 2.485 0 4.909-1.078 6.44-3.033v-4.377c0-1.188-.391-1.953-1.313-2.656h6.456c-.688.781-1.109 1.578-1.109 2.656v4.377c-2.955 2.752-6.628 4.439-10.708 4.439-7.206 0-13.1-5.299-13.1-12.677 0-7.331 5.815-12.349 12.928-12.349 4.424 0 8.003 1.626 10.88 4.893v4.314zM55.884 84.725h6.081c-.829.609-1.11 1.297-1.11 2.313v14.179c0 3.891 4.564 5.799 7.91 5.799 3.283 0 7.566-1.922 7.566-5.721V87.038c0-.954-.235-1.61-.875-2.313h3.314c-.672.688-.922 1.375-.922 2.313v14.257c0 5.127-6.049 7.096-10.239 7.096-4.314 0-10.614-1.906-10.614-7.174V87.038c-.001-.969-.392-1.688-1.111-2.313zM116.785 93.15c-.812-2.048-1.766-3.845-3.439-5.33-1.797-1.595-3.986-2.595-6.408-2.595-6.252 0-9.457 5.471-9.457 11.146 0 5.705 3.33 11.098 9.504 11.098 4.596 0 7.879-3.236 9.801-7.129v4.221c-2.859 2.83-6.549 4.268-10.582 4.268-7.473 0-13.069-4.83-13.069-12.536 0-7.487 5.377-12.411 12.709-12.411 4.064 0 8.002 1.407 10.941 4.205v5.063zM155.99 93.15c-.812-2.048-1.768-3.845-3.439-5.33-1.797-1.595-3.986-2.595-6.408-2.595-6.254 0-9.443 5.471-9.443 11.146 0 5.705 3.314 11.098 9.49 11.098 4.596 0 7.893-3.236 9.801-7.129v4.221c-2.861 2.83-6.535 4.268-10.582 4.268-7.473 0-13.068-4.83-13.068-12.536 0-7.487 5.377-12.411 12.707-12.411 4.064 0 8.004 1.407 10.943 4.205v5.063h-.001z"/>
</g>
</svg>