<?xml version="1.0" encoding="utf-8"?><!-- Uploaded to: SVG Repo, www.svgrepo.com, Generator: SVG Repo Mixer Tools -->
<svg width="800px" height="800px" viewBox="0 0 192.756 192.756" xmlns="http://www.w3.org/2000/svg">
<g fill-rule="evenodd" clip-rule="evenodd">
<path fill="#ffffff" d="M0 0h192.756v192.756H0V0z"/>
<path d="M8.504 70.561H44.54v51.634H8.504V70.561zm5.194 46.436h25.63V75.761h-25.63v41.236z" fill="#f7d730"/>
<path d="M68.477 93.727h-2.229c-2.928-4.136-5.832-8.246-8.732-12.891h-.021v12.891h-2.464V75.753h2.231c2.928 4.107 5.828 8.188 8.701 12.809h.051V75.753h2.464v17.974h-.001zM74.334 86.613c.715-2.363 1.435-4.545 2.078-7.319h.052c.718 2.774 1.361 4.957 2.028 7.319h-4.158zm1.178-10.86l-6.21 17.974h2.67l1.562-4.906h5.421l1.411 4.906h3.443l-5.728-17.974h-2.569zM86.708 93.727V78.164h-4.726v-2.411h12.529v2.411h-4.722v15.563h-3.081zM95.51 75.753h3.06v17.974h-3.06V75.753zM108.07 91.464c-3.213 0-4.342-3.543-4.342-6.984 0-3.311 1.283-6.47 4.342-6.47 3.055 0 4.334 3.159 4.334 6.47 0 3.441-1.127 6.984-4.334 6.984zm0 2.567c4.697 0 7.623-4.183 7.623-9.552 0-5.031-3.23-9.036-7.623-9.036-4.389 0-7.633 4.005-7.633 9.036.001 5.37 2.932 9.552 7.633 9.552zM131.021 93.727h-2.232c-2.93-4.136-5.832-8.246-8.73-12.891h-.025v12.891h-2.461V75.753h2.232c2.924 4.107 5.826 8.188 8.697 12.809h.053V75.753h2.467v17.974h-.001zM136.875 86.613c.721-2.363 1.436-4.545 2.082-7.319h.051c.719 2.774 1.359 4.957 2.025 7.319h-4.158zm1.184-10.86l-6.213 17.974h2.672l1.562-4.906h5.42l1.412 4.906h3.439l-5.727-17.974h-2.565zM147.246 75.753h3.061v15.559h6.082v2.415h-9.143V75.753zM66.583 108.761v7.418c-1.645.645-3.366 1.104-5.107 1.104-5.291 0-8.628-4.108-8.628-9.398 0-4.906 3.337-9.192 8.729-9.192 1.666 0 3.336.619 4.364 1.388l-1.002 2.131c-.82-.509-2.107-.946-3.286-.946-3.284 0-5.52 2.594-5.52 6.677 0 4.259 2.569 6.773 5.214 6.773.818 0 1.515-.098 2.16-.435v-5.52h3.076zM77.603 101.42h-5.141v4.927h5.032v2.414h-5.032v5.799h6.059v2.417h-9.142V99.002h8.224v2.418zM87.102 114.715c-3.213 0-4.344-3.54-4.344-6.983 0-3.309 1.284-6.467 4.344-6.467 3.053 0 4.334 3.158 4.334 6.467 0 3.443-1.132 6.983-4.334 6.983zm0 2.568c4.696 0 7.621-4.185 7.621-9.552 0-5.031-3.233-9.039-7.621-9.039-4.396 0-7.627 4.008-7.627 9.039-.001 5.368 2.921 9.552 7.627 9.552zM109.51 108.761v7.418c-1.645.645-3.361 1.104-5.109 1.104-5.287 0-8.627-4.108-8.627-9.398 0-4.906 3.34-9.192 8.732-9.192 1.67 0 3.336.619 4.361 1.388l-1.002 2.131c-.822-.509-2.098-.946-3.281-.946-3.291 0-5.525 2.594-5.525 6.677 0 4.259 2.57 6.773 5.215 6.773.824 0 1.514-.098 2.158-.435v-5.52h3.078zM115.422 101.42h1.357c1.818 0 2.848 1.048 2.848 2.899 0 2.411-1.461 3.488-2.926 3.565-.309.031-1.029.057-1.279.079v-6.543zm7.803 15.557l-3.627-7.443c1.977-1.05 3.113-3.187 3.113-5.344 0-3.495-2.135-5.188-5.576-5.188h-4.801v17.975h3.088v-6.778h1.385l2.896 6.778h3.522zM128.307 109.864c.717-2.366 1.436-4.546 2.08-7.319h.051c.719 2.773 1.359 4.953 2.027 7.319h-4.158zm1.179-10.862l-6.215 17.975h2.67l1.568-4.906h5.42l1.404 4.906h3.447l-5.729-17.975h-2.565zM143.555 99.002h-4.801v17.975h3.082v-6.778h1.383c3.674 0 5.91-2.979 5.91-6.009 0-3.496-2.133-5.188-5.574-5.188zm-.432 8.883c-.32.029-1.072.053-1.287.074v-6.539h1.383c1.797 0 2.828 1.048 2.828 2.899 0 2.411-1.459 3.489-2.924 3.566zM163.402 116.977h-3.08v-8.65h-6.398v8.65h-3.047V99.002h3.047v6.907h6.398v-6.856h3.08v17.924zM166.352 99.002h3.062v17.975h-3.062V99.002zM183.273 102.265c-.746-.463-1.973-1-3.16-1-3.137 0-5.414 2.594-5.414 6.677 0 4.259 2.514 6.773 5.494 6.773a5.814 5.814 0 0 0 3.08-.9l.85 2.236c-.93.641-2.568 1.232-4.055 1.232-5.291 0-8.631-4.108-8.631-9.398 0-4.906 3.311-9.192 8.676-9.192 1.596 0 3.08.672 4.139 1.388l-.979 2.184z"/>
</g>
</svg>