<?xml version="1.0" encoding="utf-8"?><!-- Uploaded to: SVG Repo, www.svgrepo.com, Generator: SVG Repo Mixer Tools -->
<svg width="800px" height="800px" viewBox="0 0 192.756 192.756" xmlns="http://www.w3.org/2000/svg">
<g fill-rule="evenodd" clip-rule="evenodd">
<path fill="#ffffff" d="M0 0h192.756v192.756H0V0z"/>
<path d="M27.305 119.422c-14.669-.004-24.47-10.398-24.47-23.002 0-12.605 9.826-23.119 24.449-23.086h138.189c14.623-.033 24.449 10.481 24.449 23.086 0 12.604-9.803 22.998-24.473 23.002H27.305z" fill="#cc2131"/>
<path d="M27.351 79.005c-11.613.02-18.743 7.783-18.743 17.384 0 9.6 7.084 17.424 18.743 17.381h138.052c11.658.043 18.746-7.781 18.746-17.381 0-9.601-7.131-17.363-18.746-17.384H27.351z" fill="#ffffff"/>
<path fill="#cc2131" d="M21.396 85.491h6.756l9.355 15.128-.005-15.128h6.705v21.698h-6.696L28.109 92.06v15.129h-6.716l.003-21.698zM80.674 87.725h6.53v2.919h3.533v2.143h-3.533l.004 14.402h-6.534l.003-14.402h-3.546v-2.141h3.548l-.005-2.921zM47.943 92.761h6.525v14.428h-6.525V92.761zM47.929 85.487h6.539v4.436h-6.539v-4.436zM164.898 99.859s-.004 2.178-.004 3.055c0 2.299-1.357 3.25-2.668 3.25-1.305 0-2.672-.951-2.672-3.25 0-.877.004-3.109.004-3.109s.006-2.133.006-3.01c0-2.29 1.361-3.232 2.662-3.232s2.668.942 2.668 3.232c0 .877 0 2.492.004 3.074v-.01zm-2.621-8.084c-5.264 0-9.531 3.628-9.531 8.104 0 4.473 4.268 8.1 9.531 8.1 5.27 0 9.537-3.627 9.537-8.1 0-4.476-4.267-8.104-9.537-8.104zM144.18 85.491h6.439v21.694h-6.449l-.004-.83c-2.494 1.566-5.316 1.562-7.512.541-.588-.275-4.463-2.135-4.463-7.152 0-3.812 3.596-7.969 8.295-7.557 1.549.138 2.648.702 3.693 1.287l.001-7.983zm.047 14.411v-2.578c0-2.232-1.539-2.8-2.555-2.8-1.041 0-2.561.568-2.561 2.8 0 .736.004 2.572.004 2.572s-.004 1.795-.004 2.564c0 2.23 1.52 2.812 2.561 2.812 1.016 0 2.555-.582 2.555-2.812v-2.558zM69.741 92.094c2.438-.067 7.39 1.53 7.354 7.244-.007 1.012-.002 7.848-.002 7.848h-6.482v-9.475c0-1.259-1.203-2.658-2.979-2.658-1.779 0-3.099 1.399-3.099 2.658l.007 9.475h-6.479l-.005-14.427 6.483-.005s-.007 1.162 0 1.516a7.872 7.872 0 0 1 5.202-2.176zM122.768 92.094c2.434-.067 7.385 1.53 7.354 7.244-.01 1.012-.006 7.848-.006 7.848h-6.482v-9.475c0-1.259-1.201-2.658-2.979-2.658s-3.102 1.399-3.102 2.658l.01 9.475h-6.477l.004-14.427 6.473-.005s-.01 1.162 0 1.516a7.869 7.869 0 0 1 5.205-2.176zM96.816 97.789c-.012-1.262.014-2.106.428-2.832.514-.888 1.451-1.311 2.299-1.315h-.004c.854.004 1.785.427 2.295 1.315.414.725.438 1.57.428 2.832h-5.446zm5.418 4.352s.006.064.006.877c0 2.639-1.736 3.227-2.697 3.227-.965 0-2.732-.588-2.732-3.227 0-.793.01-2.98.01-2.98s12.287.004 12.287 0c0-4.476-4.318-8.183-9.625-8.183-5.304 0-9.607 3.628-9.607 8.099 0 4.477 4.303 8.105 9.607 8.105 4.402 0 8.119-2.514 9.258-5.924l-6.507.006zM172.268 90.654h-.752v-4.941h1.885c1.164 0 1.744.431 1.744 1.404 0 .883-.555 1.268-1.283 1.361l1.404 2.176h-.836l-1.305-2.143h-.857v2.143zm.894-2.778c.635 0 1.197-.044 1.197-.804 0-.611-.555-.726-1.072-.726h-1.02v1.53h.895z"/>
<path d="M168.82 88.17c0-2.458 1.996-4.271 4.352-4.271 2.336 0 4.326 1.814 4.326 4.271 0 2.483-1.99 4.295-4.326 4.295-2.356 0-4.352-1.811-4.352-4.295zm4.352 3.581c1.939 0 3.465-1.518 3.465-3.581 0-2.026-1.525-3.558-3.465-3.558-1.959 0-3.488 1.532-3.488 3.558 0 2.064 1.529 3.581 3.488 3.581z" fill="#cc2131"/>
</g>
</svg>