<?xml version="1.0" encoding="utf-8"?><!-- Uploaded to: SVG Repo, www.svgrepo.com, Generator: SVG Repo Mixer Tools -->
<svg width="800px" height="800px" viewBox="0 0 192.756 192.756" xmlns="http://www.w3.org/2000/svg">
<g fill-rule="evenodd" clip-rule="evenodd">
<path fill="#ffffff" d="M0 0h192.756v192.756H0V0z"/>
<path d="M11.694 110.012H9.225c-.206 0-.721 0-.721-.309 0-.205.103-.309.412-.412 2.264-.721 2.778-1.955 2.778-3.703V87.169c0-1.647-.515-2.882-2.778-3.705-.309 0-.412-.206-.412-.309 0-.411.515-.309.721-.309h20.373c4.63 0 8.438 3.704 8.438 8.334 0 4.631-3.808 8.334-8.438 8.334h-10.29v6.277c.104 1.646.618 2.777 2.779 3.498.309.104.411.207.411.412 0 .309-.514.309-.72.309H11.694v.002zm151.876-9.981h4.836l-4.836-8.232-.516-.824-4.32 9.056h4.836zm0-17.286h3.293l13.787 24.285c.412.615.926 1.234 1.545 1.541.514.412 1.131.516 1.645.721.207.104.412.207.412.412 0 .309-.514.309-.721.309H171.287c-.205 0-.824 0-.824-.309 0-.205.207-.309.414-.412.617-.205 1.027-.514 1.232-1.131.207-.721 0-1.131-.514-2.059a171.916 171.916 0 0 0-2.16-4.424H157.91l-.102.205c-.104.412-.926 1.852-1.545 3.396-.822 1.646-1.131 2.057-.926 2.881.104.617.617.926 1.234 1.131.207.104.311.207.311.412 0 .309-.516.309-.721.309h-5.66c-.205 0-.721 0-.721-.309 0-.205.104-.309.412-.412.516-.205 1.131-.309 1.646-.721.617-.307 1.133-.926 1.543-1.541l.721-1.545 7.82-16.36-1.133-1.955c-1.027-1.647-2.057-2.676-3.189-3.293-.514-.309-1.029-.309-1.543-.515-.309-.103-.412-.206-.309-.412 0-.206.205-.103.309-.206h7.513v.002zm-30.767 27.163h.412c18.934 0 18.729-27.061 0-27.061h-15.537c-.309 0-.822-.103-.822.309 0 .103.205.309.41.309 2.264.72 2.779 1.955 2.881 3.499v18.83c-.102 1.646-.617 2.777-2.881 3.498-.205.104-.41.207-.41.412 0 .309.514.309.822.309H127.659v-.104h5.144v-.001zm0-25.106c2.883 0 5.25 2.367 5.25 5.247v12.554c0 2.881-2.367 5.248-5.25 5.248h-5.145V84.802h5.145zM93.6 100.031h4.836L93.6 91.799l-.514-.824-4.321 9.056H93.6zm0-17.286H96.996l13.788 24.285c.309.615.824 1.234 1.441 1.541.514.412 1.133.516 1.75.721.205.104.41.207.41.412 0 .309-.617.309-.822.309H101.32c-.207 0-.721 0-.721-.309 0-.205.102-.309.41-.412.516-.205 1.029-.514 1.133-1.131.205-.721 0-1.131-.412-2.059-.721-1.543-1.543-2.984-2.262-4.424H87.94l-.102.205c-.103.412-.824 1.852-1.544 3.396-.72 1.646-1.131 2.057-.925 2.881.206.617.617.926 1.235 1.131.205.104.411.207.411.412 0 .309-.514.309-.822.309h-5.558c-.206 0-.824 0-.824-.309 0-.205.206-.309.412-.412.618-.205 1.132-.309 1.75-.721.514-.307 1.132-.926 1.44-1.541l.72-1.545 7.924-16.36-1.132-1.955c-1.029-1.647-2.161-2.676-3.19-3.293-.618-.309-1.029-.309-1.647-.515-.206-.103-.412-.206-.308-.412.102-.206.308-.103.412-.206H93.6v.002zm-33.956 18.007c2.367.822 5.248 1.027 7.511.309l8.953 7.717.72.617c.104.104.104.205.104.309 0 .309-.515.309-.721.309h-9.466l-7.1-5.865-5.763-4.631v6.381c.104 1.543.721 2.674 2.881 3.395.206.104.309.207.309.412 0 .309-.515.309-.721.309H43.9c-.308 0-.823 0-.823-.309 0-.205.206-.309.411-.412 2.47-.822 2.779-2.057 2.881-4.012V87.477c-.103-1.852-.412-3.19-2.881-4.013-.206 0-.411-.206-.411-.309 0-.411.515-.309.823-.309H63.965A8.3 8.3 0 0 1 72.3 91.18a8.299 8.299 0 0 1-8.335 8.334H57.483c.309.617 1.029.824 1.646 1.133.206.001.309.105.515.105zm0-3.19h.823c2.675 0 4.939-2.882 4.939-6.587 0-3.601-2.264-6.482-4.939-6.482h-6.586v13.069h5.763zM25.173 84.494h-5.865v13.069H26.1c2.778 0 4.939-2.882 4.939-6.587 0-3.601-2.161-6.482-4.939-6.482h-.927z"/>
</g>
</svg>