<svg width="800" height="800" viewBox="0 0 800 800" fill="none" xmlns="http://www.w3.org/2000/svg">
<rect width="800" height="800" fill="white"/>
<path d="M137.963 406.929C140.926 412.129 142.592 418.629 142.592 426.243V426.614C142.592 434.414 141.111 441.471 137.963 447.786C134.815 454.1 130.37 459.3 124.815 463.757C119.074 468.029 112.222 471.371 104.074 473.786C95.9257 476.2 86.8516 477.314 76.8516 477.314C61.6664 477.314 47.4072 475.271 34.259 471C21.1109 466.729 9.81456 460.414 0.370117 452.057L27.0368 420.3C35.1849 426.614 43.7035 431.071 52.5923 433.671C61.4812 436.457 70.3701 437.757 79.259 437.757C83.8886 437.757 87.0368 437.2 89.0738 436.086C91.1109 434.971 92.0368 433.3 92.0368 431.443V431.071C92.0368 428.843 90.5553 427.171 87.5923 425.686C84.6294 424.2 79.259 422.714 71.296 421.229C62.9627 419.557 54.9997 417.514 47.4072 415.286C39.8146 413.057 33.1479 410.086 27.4072 406.557C21.6664 403.029 17.0368 398.571 13.7035 393.186C9.99975 387.429 8.33308 380.743 8.33308 372.943V372.571C8.33308 365.514 9.62938 358.829 12.4072 352.7C15.1849 346.571 19.259 341.186 24.6294 336.729C29.9997 332.086 36.6664 328.557 44.4442 325.957C52.222 323.357 61.296 322.057 71.6664 322.057C86.1109 322.057 98.8886 323.729 109.629 327.257C120.555 330.6 130.185 335.8 138.889 342.671L114.629 376.286C107.592 371.086 99.9997 367.371 92.222 364.957C84.259 362.543 76.8516 361.429 69.9997 361.429C66.296 361.429 63.5183 361.986 61.8516 363.1C59.9998 364.214 59.259 365.7 59.259 367.557V367.929C59.259 369.971 60.5553 371.643 63.3331 373.129C66.1109 374.614 71.296 376.1 79.0738 377.586C88.5183 379.257 97.222 381.3 105 383.714C112.778 386.129 119.444 389.286 125.185 393C130.555 397.086 135 401.543 137.963 406.929ZM139.815 367.186H183.703V474.529H233.518V367.186H277.407V324.843H139.815V367.186ZM718.333 315.557L638.148 474.529H685.926L718.333 410.271L750.926 474.529H798.703L718.333 315.557ZM495 315.557L575.37 474.529H527.592L495.185 410.271L462.778 474.529H430.37H415H373.518L345.37 431.814H345H334.815V474.529H285V324.843H357.407C370.741 324.843 381.666 326.329 390.37 329.486C398.889 332.457 405.926 336.729 411.111 341.929C415.741 346.386 419.074 351.586 421.296 357.343C423.518 363.1 424.629 369.786 424.629 377.4V377.771C424.629 388.729 422.037 398.014 416.666 405.443C411.481 413.057 404.259 419 395.185 423.457L421.111 461.343L495 315.557ZM375 381.114C375 376.286 373.333 372.757 369.815 370.343C366.481 367.929 361.852 366.814 355.926 366.814H334.259V396.157H355.741C361.666 396.157 366.481 394.857 369.815 392.257C373.148 389.657 375 386.129 375 381.486V381.114ZM639.259 324.843L606.666 389.286L574.074 324.843H526.296L606.666 483.814L686.852 324.843H639.259Z" fill="#FC4C02"/>
</svg>
